<svg width="60" height="60" viewBox="0 0 60 60" fill="none" xmlns="http://www.w3.org/2000/svg">
  <g opacity="0.2">
    <path d="M29.9998 60C13.4578 60 0 46.5422 0 29.9998C0 13.4578 13.4578 0 29.9998 0C46.5417 0 59.9995 13.4578 59.9995 29.9998C59.9995 46.5422 46.5417 60 29.9998 60ZM29.9998 2.95885C15.0896 2.95885 2.95885 15.0896 2.95885 29.9998C2.95885 44.9104 15.0896 57.0412 29.9998 57.0412C44.9099 57.0412 57.0407 44.9104 57.0407 29.9998C57.0407 15.0896 44.9104 2.95885 29.9998 2.95885Z" fill="#8059B2"/>
    <path d="M13.2296 34.1249C15.5076 34.1249 17.3542 32.2782 17.3542 30.0002C17.3542 27.7223 15.5076 25.8756 13.2296 25.8756C10.9516 25.8756 9.10498 27.7223 9.10498 30.0002C9.10498 32.2782 10.9516 34.1249 13.2296 34.1249Z" fill="#8059B2"/>
    <path d="M46.7697 34.1249C49.0476 34.1249 50.8943 32.2782 50.8943 30.0002C50.8943 27.7223 49.0476 25.8756 46.7697 25.8756C44.4917 25.8756 42.645 27.7223 42.645 30.0002C42.645 32.2782 44.4917 34.1249 46.7697 34.1249Z" fill="#8059B2"/>
    <path d="M29.901 49.5291C24.9499 49.5291 20.9219 45.9385 20.9219 41.5249H23.8807C23.8807 44.3072 26.5817 46.5702 29.901 46.5702C33.2203 46.5702 35.9213 44.3067 35.9213 41.5249H38.8801C38.8801 45.938 34.8521 49.5291 29.901 49.5291Z" fill="#8059B2"/>
  </g>
</svg>
