<svg width="60" height="60" viewBox="0 0 60 60" fill="none" xmlns="http://www.w3.org/2000/svg">
  <path d="M29.9995 60C13.4577 60 0 46.5418 0 29.9995C0 13.4577 13.4577 0 29.9995 0C46.5413 0 59.999 13.4577 59.999 29.9995C59.999 46.5418 46.5413 60 29.9995 60ZM29.9995 2.95882C15.0895 2.95882 2.95882 15.0895 2.95882 29.9995C2.95882 44.91 15.0895 57.0412 29.9995 57.0412C44.909 57.0412 57.0402 44.91 57.0402 29.9995C57.0402 15.0895 44.91 2.95882 29.9995 2.95882Z" fill="#02F578"/>
  <path d="M39.1819 40.749C39.1819 45.2085 35.0267 48.8241 29.9011 48.8241C24.7754 48.8241 20.6207 45.2085 20.6207 40.749H39.1819Z" fill="#02F578"/>
  <path d="M22.8726 32.6549H19.9137C19.9137 29.9727 18.0906 27.7921 15.8493 27.7921C13.608 27.7921 11.7849 29.9732 11.7849 32.6549H8.82605C8.82605 28.3414 11.9767 24.8333 15.8493 24.8333C19.7219 24.8333 22.8726 28.3414 22.8726 32.6549Z" fill="#02F578"/>
  <path d="M51.1737 32.6549H48.2149C48.2149 29.9727 46.3918 27.7921 44.1505 27.7921C41.9091 27.7921 40.086 29.9732 40.086 32.6549H37.1272C37.1272 28.3414 40.2778 24.8333 44.1505 24.8333C48.0226 24.8333 51.1737 28.3414 51.1737 32.6549Z" fill="#02F578"/>
</svg>
