<svg width="60" height="60" viewBox="0 0 60 60" fill="none" xmlns="http://www.w3.org/2000/svg">
  <path d="M29.9998 60C13.4578 60 0 46.5422 0 29.9998C0 13.4578 13.4578 0 29.9998 0C46.5417 0 59.9995 13.4578 59.9995 29.9998C59.9995 46.5422 46.5417 60 29.9998 60ZM29.9998 2.95885C15.0896 2.95885 2.95885 15.0896 2.95885 29.9998C2.95885 44.9104 15.0896 57.0412 29.9998 57.0412C44.9099 57.0412 57.0407 44.9104 57.0407 29.9998C57.0407 15.0896 44.9104 2.95885 29.9998 2.95885Z" fill="#FFDE32"/>
  <path d="M13.2296 34.125C15.5076 34.125 17.3542 32.2783 17.3542 30.0004C17.3542 27.7224 15.5076 25.8757 13.2296 25.8757C10.9516 25.8757 9.10498 27.7224 9.10498 30.0004C9.10498 32.2783 10.9516 34.125 13.2296 34.125Z" fill="#FFDE32"/>
  <path d="M46.7697 34.125C49.0476 34.125 50.8943 32.2783 50.8943 30.0004C50.8943 27.7224 49.0476 25.8757 46.7697 25.8757C44.4917 25.8757 42.645 27.7224 42.645 30.0004C42.645 32.2783 44.4917 34.125 46.7697 34.125Z" fill="#FFDE32"/>
  <path d="M38.1363 43.3076H21.8632V46.2665H38.1363V43.3076Z" fill="#FFDE32"/>
</svg>
