<svg width="60" height="60" viewBox="0 0 60 60" fill="none" xmlns="http://www.w3.org/2000/svg">
  <g opacity="0.2">
    <path d="M29.9998 60C13.4578 60 0 46.5422 0 29.9998C0 13.4578 13.4578 0 29.9998 0C46.5417 0 59.9995 13.4578 59.9995 29.9998C59.9995 46.5422 46.5417 60 29.9998 60ZM29.9998 2.95885C15.0896 2.95885 2.95885 15.0896 2.95885 29.9998C2.95885 44.9104 15.0896 57.0412 29.9998 57.0412C44.9099 57.0412 57.0407 44.9104 57.0407 29.9998C57.0407 15.0896 44.9104 2.95885 29.9998 2.95885Z" fill="#8059B2"/>
    <path d="M38.8801 48.0501H35.9213C35.9213 45.2678 33.2203 43.0047 29.901 43.0047C26.5817 43.0047 23.8807 45.2683 23.8807 48.0501H20.9219C20.9219 43.6365 24.9499 40.0459 29.901 40.0459C34.8521 40.0459 38.8801 43.636 38.8801 48.0501Z" fill="#8059B2"/>
    <path d="M10.7387 35.807L9.30518 33.219L15.1168 30.0002L9.30518 26.7815L10.7387 24.193L21.2239 30.0002L10.7387 35.807Z" fill="#8059B2"/>
    <path d="M49.2596 35.807L38.7739 30.0002L49.2596 24.193L50.6927 26.7815L44.8815 30.0002L50.6927 33.219L49.2596 35.807Z" fill="#8059B2"/>
  </g>
</svg>
