<svg width="60" height="60" viewBox="0 0 60 60" fill="none" xmlns="http://www.w3.org/2000/svg">
  <g opacity="0.2">
    <path d="M29.9995 60C13.4577 60 0 46.5418 0 29.9995C0 13.4577 13.4577 0 29.9995 0C46.5413 0 59.999 13.4577 59.999 29.9995C59.999 46.5418 46.5413 60 29.9995 60ZM29.9995 2.95882C15.0895 2.95882 2.95882 15.0895 2.95882 29.9995C2.95882 44.91 15.0895 57.0412 29.9995 57.0412C44.909 57.0412 57.0402 44.91 57.0402 29.9995C57.0402 15.0895 44.91 2.95882 29.9995 2.95882Z" fill="#8059B2"/>
    <path d="M39.1818 40.7489C39.1818 45.2083 35.0266 48.824 29.901 48.824C24.7753 48.824 20.6206 45.2083 20.6206 40.7489H39.1818Z" fill="#8059B2"/>
    <path d="M22.8727 32.655H19.9139C19.9139 29.9729 18.0907 27.7922 15.8494 27.7922C13.6081 27.7922 11.785 29.9733 11.785 32.655H8.82617C8.82617 28.3416 11.9768 24.8334 15.8494 24.8334C19.722 24.8334 22.8727 28.3416 22.8727 32.655Z" fill="#8059B2"/>
    <path d="M51.174 32.655H48.2151C48.2151 29.9729 46.392 27.7922 44.1507 27.7922C41.9094 27.7922 40.0863 29.9733 40.0863 32.655H37.1274C37.1274 28.3416 40.2781 24.8334 44.1507 24.8334C48.0228 24.8334 51.174 28.3416 51.174 32.655Z" fill="#8059B2"/>
  </g>
</svg>
